<svg width="14" height="14" viewBox="0 0 14 14" fill="none" xmlns="http://www.w3.org/2000/svg">
<path fill-rule="evenodd" clip-rule="evenodd" d="M0.358648 0.358893C0.83694 -0.119535 1.61252 -0.119645 2.09094 0.358648L7 5.26632L11.9091 0.358648C12.3875 -0.119645 13.1631 -0.119535 13.6414 0.358893C14.1196 0.837321 14.1195 1.6129 13.6411 2.09119L8.73254 6.99837L13.6411 11.9055C14.1195 12.3838 14.1196 13.1594 13.6414 13.6378C13.1631 14.1163 12.3875 14.1164 11.9091 13.6381L7 8.73042L2.09094 13.6381C1.61252 14.1164 0.83694 14.1163 0.358648 13.6378C-0.119645 13.1594 -0.119535 12.3838 0.358893 11.9055L5.26746 6.99837L0.358893 2.09119C-0.119535 1.6129 -0.119645 0.837321 0.358648 0.358893Z" fill="#6E6E6E"/>
</svg>
