<svg width="57" height="57" viewBox="0 0 57 57" fill="none" xmlns="http://www.w3.org/2000/svg">
<path d="M22.7113 0C10.1682 0 0 10.1738 0 22.7239C0 35.2741 10.1682 45.4479 22.7113 45.4479C28.0106 45.4479 32.8839 43.6322 36.7468 40.5914L51.6239 55.4767C51.875 55.728 52.1731 55.9272 52.5011 56.0632C52.8293 56.1991 53.1809 56.2692 53.536 56.2692C53.8911 56.2692 54.2427 56.1991 54.5708 56.0632C54.8988 55.9272 55.197 55.728 55.4481 55.4767C55.6991 55.2254 55.8984 54.9271 56.0341 54.599C56.1701 54.2706 56.24 53.9188 56.24 53.5635C56.24 53.2082 56.1701 52.8564 56.0341 52.5281C55.8984 52.1999 55.6991 51.9016 55.4481 51.6503L40.5689 36.7652C43.7202 32.7648 45.4303 27.8176 45.4227 22.7239C45.4227 10.1738 35.2544 0 22.7113 0ZM5.40746 22.7239C5.40746 18.1322 7.23053 13.7284 10.4756 10.4815C13.7207 7.23454 18.122 5.41045 22.7113 5.41045C27.3005 5.41045 31.7019 7.23454 34.947 10.4815C38.192 13.7284 40.0152 18.1322 40.0152 22.7239C40.0152 27.3158 38.192 31.7194 34.947 34.9664C31.7019 38.2133 27.3005 40.0374 22.7113 40.0374C18.122 40.0374 13.7207 38.2133 10.4756 34.9664C7.23053 31.7194 5.40746 27.3158 5.40746 22.7239Z" fill="#6E6E6E"/>
</svg>
