<svg width="31" height="31" viewBox="0 0 31 31" fill="none" xmlns="http://www.w3.org/2000/svg">
<g clip-path="url(#clip0_825_559)">
<path d="M14.8784 1.05439L14.8506 1.05724L14.8226 1.05852C14.6769 1.0652 14.5356 1.07316 14.3974 1.08362L14.299 1.09106L14.2583 1.0861L14.2152 1.0989L14.1181 1.1081C13.9276 1.12614 13.7387 1.14764 13.5517 1.17275L13.5517 1.17279L13.5419 1.17401C13.534 1.17499 13.5239 1.17639 13.511 1.17837L13.5033 1.17956L13.4956 1.18063C12.7304 1.28627 11.9848 1.45097 11.2636 1.67061L11.215 1.68541L11.1652 1.69521C11.1347 1.70121 11.1142 1.70598 11.0876 1.71397C11.0579 1.72288 11.009 1.73931 10.9279 1.77219L10.9278 1.77226C10.9282 1.77207 10.9258 1.77308 10.9213 1.775L10.8843 1.79094L10.8461 1.80386C10.7561 1.83433 10.6646 1.86687 10.5681 1.90168L10.5229 1.91801L10.4774 1.9296C10.4774 1.92962 10.4772 1.92965 10.4771 1.92969C10.4771 1.92969 10.4771 1.92971 10.4771 1.92971C10.4753 1.93025 10.4694 1.93214 10.4576 1.9363C10.4309 1.94573 10.3827 1.96387 10.2969 1.99879L10.2261 2.02911L10.2122 2.03506L10.1981 2.04058C9.93559 2.14372 9.67575 2.25539 9.41811 2.37442L9.39511 2.38505L9.37161 2.39449C9.31596 2.41686 9.28379 2.43135 9.24632 2.45226L9.22038 2.46673L9.19363 2.47964C8.90288 2.61992 8.61694 2.77064 8.33569 2.93065L8.3189 2.94021L8.30174 2.94911L8.09581 3.05597L7.98024 3.1372L7.95451 3.15528L7.92769 3.17172C3.76955 5.71979 1.00007 10.298 1.00007 15.5211C1.00007 23.5163 7.49065 29.9999 15.5 29.9999C23.5094 29.9999 30 23.5162 30 15.5211C30 7.75461 23.8746 1.41446 16.1827 1.0588L15.9687 1.04891C15.9104 1.04825 15.858 1.04521 15.8136 1.04173L15.2552 1.01592L14.8784 1.05439ZM14.451 1.02252C14.4499 1.02292 14.4489 1.02332 14.4479 1.02373C14.4489 1.02333 14.4499 1.02293 14.451 1.02252Z" stroke="#6E6E6E" stroke-width="2"/>
<path d="M25 16L15 21.7735L15 10.2265L25 16ZM5 15L16 15L16 17L5 17L5 15Z" fill="#6E6E6E"/>
</g>
<defs>
<clipPath id="clip0_825_559">
<rect width="31" height="31" fill="white" transform="matrix(-1 0 0 1 31 0)"/>
</clipPath>
</defs>
</svg>
