<svg width="31" height="31" viewBox="0 0 31 31" fill="none" xmlns="http://www.w3.org/2000/svg">
<g clip-path="url(#clip0_825_555)">
<path d="M16.1494 1.05724L16.1215 1.05439L15.7447 1.01592L15.1864 1.04173C15.1419 1.04521 15.0895 1.04825 15.0312 1.04891L14.8172 1.0588C7.12531 1.41446 0.999939 7.75461 0.999939 15.5211C0.999939 23.5162 7.49052 29.9999 15.5 29.9999C23.5093 29.9999 29.9999 23.5163 29.9999 15.5211C29.9999 10.298 27.2304 5.71979 23.0722 3.17172L23.0454 3.15528L23.0197 3.1372L22.9041 3.05597L22.6982 2.94911L22.681 2.94021L22.6642 2.93065C22.383 2.77064 22.0971 2.61991 21.8063 2.47964L21.7796 2.46673L21.7536 2.45226C21.7162 2.43135 21.684 2.41686 21.6283 2.39449L21.6048 2.38505L21.5818 2.37442C21.3242 2.25539 21.0644 2.14372 20.8018 2.04058L20.7878 2.03506L20.7739 2.02911L20.7031 1.99879C20.6173 1.96387 20.569 1.94573 20.5423 1.9363C20.5306 1.93213 20.5246 1.93025 20.5229 1.92971C20.5229 1.92971 20.5229 1.92969 20.5228 1.92969C20.5227 1.92965 20.5226 1.92962 20.5225 1.9296L16.1494 1.05724ZM16.1494 1.05724L16.1773 1.05852M16.1494 1.05724L16.1773 1.05852M16.1773 1.05852C16.3231 1.0652 16.4644 1.07316 16.6026 1.08362L16.7009 1.09106M16.1773 1.05852L16.7009 1.09106M16.7009 1.09106L16.7417 1.0861L16.7009 1.09106Z" stroke="#6E6E6E" stroke-width="2"/>
<path d="M6 16L16 21.7735L16 10.2265L6 16ZM26 15L15 15L15 17L26 17V15Z" fill="#6E6E6E"/>
</g>
<defs>
<clipPath id="clip0_825_555">
<rect width="31" height="31" fill="white"/>
</clipPath>
</defs>
</svg>
