<svg width="31" height="31" viewBox="0 0 31 31" fill="none" xmlns="http://www.w3.org/2000/svg">
<g clip-path="url(#clip0_741_1541)">
<path d="M16.1494 1.05724L16.1216 1.05439L15.7448 1.01592L15.1864 1.04173C15.142 1.04521 15.0896 1.04825 15.0313 1.04891L14.8173 1.0588C7.12537 1.41446 1 7.75461 1 15.5211C1 23.5162 7.49058 29.9999 15.5 29.9999C23.5094 29.9999 29.9999 23.5163 29.9999 15.5211C29.9999 10.298 27.2304 5.71979 23.0723 3.17172L23.0455 3.15528L23.0198 3.1372L22.9042 3.05597L22.6983 2.94911L22.6811 2.94021L22.6643 2.93065C22.3831 2.77064 22.0971 2.61991 21.8064 2.47964L21.7796 2.46673L21.7537 2.45226C21.7162 2.43135 21.684 2.41686 21.6284 2.39449L21.6049 2.38505L21.5819 2.37442C21.3242 2.25539 21.0644 2.14372 20.8019 2.04058L20.7878 2.03506L20.7739 2.02911L20.7031 1.99879C20.6173 1.96387 20.5691 1.94573 20.5424 1.9363C20.5306 1.93213 20.5247 1.93025 20.5229 1.92971C20.5229 1.92971 20.5229 1.92969 20.5229 1.92969C20.5228 1.92965 20.5226 1.92962 20.5226 1.9296L16.1494 1.05724ZM16.1494 1.05724L16.1774 1.05852M16.1494 1.05724L16.1774 1.05852M16.1774 1.05852C16.3231 1.0652 16.4644 1.07316 16.6026 1.08362L16.701 1.09106M16.1774 1.05852L16.701 1.09106M16.701 1.09106L16.7417 1.0861L16.701 1.09106Z" stroke="#6E6E6E" stroke-width="2"/>
</g>
<defs>
<clipPath id="clip0_741_1541">
<rect width="31" height="31" fill="white"/>
</clipPath>
</defs>
</svg>
