<svg width="35" height="35" viewBox="0 0 35 35" fill="none" xmlns="http://www.w3.org/2000/svg">
<path d="M17.5 35C27.165 35 35 27.165 35 17.5C35 7.83502 27.165 0 17.5 0C7.83502 0 0 7.83502 0 17.5C0 27.165 7.83502 35 17.5 35Z" fill="#6E6E6E"/>
<path fill-rule="evenodd" clip-rule="evenodd" d="M8.53906 6.41696H22.5865V9.51781H25.6873V29.3798H8.53906V6.41696Z" fill="#FEFEFE"/>
<path fill-rule="evenodd" clip-rule="evenodd" d="M27.3163 7.8367V7.89185H24.2155V4.80212L27.3163 7.8367Z" fill="#FEFEFE"/>
<path fill-rule="evenodd" clip-rule="evenodd" d="M11.4704 10.885H22.7561V12.6731H11.4704V10.885Z" fill="#6E6E6E"/>
<path fill-rule="evenodd" clip-rule="evenodd" d="M11.4704 15.1328H22.7561V16.9209H11.4704V15.1328Z" fill="#6E6E6E"/>
<path fill-rule="evenodd" clip-rule="evenodd" d="M11.4704 19.3806H22.7561V21.1687H11.4704V19.3806Z" fill="#6E6E6E"/>
<path fill-rule="evenodd" clip-rule="evenodd" d="M11.4704 23.6284H22.7561V25.4165H11.4704V23.6284Z" fill="#6E6E6E"/>
</svg>
